<?xml version="1.0" encoding="UTF-8"?>
<svg width="202px" height="228px" viewBox="0 0 202 228" version="1.1" xmlns="http://www.w3.org/2000/svg" xmlns:xlink="http://www.w3.org/1999/xlink">
    <title>logo_plain_tiny</title>
    <g id="Symbols" stroke="none" stroke-width="1" fill="none" fill-rule="evenodd">
        <g id="Icon-/-Plain-/-Tiny" transform="translate(-22.000000, -9.000000)" fill="#000000" fill-rule="nonzero">
            <path d="M122.88,9 C133.11,9 142.06,21 148.78,43.45 C151.011272,50.9203693 152.889423,59.2402046 154.387121,68.1908473 C162.881339,64.9915173 171.023583,62.4384932 178.61,60.62 C201.44,55.13 216.23,56.91 221.36,65.75 C226.49,74.59 220.7,88.31 204.6,105.42 C198.73342,111.6571 191.757055,118.055082 183.910656,124.423065 C189.372757,128.891034 194.3328,133.318913 198.72,137.63 L198.403484,137.320544 C200.757948,135.669186 203.625791,134.7 206.72,134.7 C214.622759,134.7 221.048899,141.022156 221.21664,148.884689 L221.22,149.2 C221.214243,153.382736 219.440192,157.150837 216.605283,159.796868 C220.864678,167.401074 222.001895,173.880773 219.39,178.49 C216.64,183.23 210.17,185.49 201.01,185.49 C189.281116,185.49 173.149296,181.779255 154.815323,174.879482 C153.253343,184.852721 151.229449,194.089168 148.78,202.29 C142.06,224.79 133.11,236.69 122.88,236.69 C112.65,236.69 103.7,224.8 96.98,202.29 C94.7543877,194.83858 92.8801073,186.534627 91.3842837,177.599446 C89.3387541,178.368215 87.3131417,179.099555 85.3110016,179.791938 C85.3836589,180.370161 85.42,180.960837 85.42,181.56 C85.42,189.568129 78.9281289,196.06 70.92,196.06 C64.8745804,196.06 59.6932605,192.36035 57.5166268,187.101636 C53.284908,187.815626 49.0030318,188.199098 44.71,188.25 C34.48,188.25 27.58,185.49 24.4,180 C19.27,171.21 25.06,157.49 41.16,140.4 C47.0404969,134.148103 54.0345543,127.743541 61.902448,121.368133 C34.8935672,99.2832019 20.147287,78.1431912 26.42,67.26 C29.17,62.52 35.64,60.26 44.8,60.26 C56.5184186,60.26 72.6319187,63.9671296 90.9456038,70.8561285 C91.7855996,65.4982704 92.7586149,60.3531833 93.8589751,55.4659688 C88.7705415,53.2154084 85.22,48.1223409 85.22,42.2 C85.22,34.1918711 91.7118711,27.7 99.72,27.7 C100.736221,27.7 101.728024,27.8045403 102.685244,28.0034533 C108.457847,15.5547656 115.322458,9 122.88,9 Z M125.755388,162.112284 L125.728426,162.125267 C115.665833,167.364416 105.713766,171.948682 96.1519465,175.754343 C97.6386097,184.85504 99.521405,193.294853 101.77,200.83 C107.62,220.42 115.31,231.66 122.88,231.66 C130.45,231.66 138.14,220.42 143.99,200.83 C146.462443,192.556673 148.49263,183.180085 150.040801,173.029673 C142.24237,169.92512 134.09413,166.273264 125.755388,162.112284 Z M65.8735768,124.55413 L65.3936525,124.940834 C57.5660491,131.25983 50.6226087,137.59913 44.8,143.77 C30.79,158.66 24.93,170.96 28.73,177.5 C31.8511641,182.931016 41.7960217,184.553883 56.4341167,182.203382 C56.4247145,181.990511 56.42,181.775806 56.42,181.56 C56.42,173.551871 62.9118711,167.06 70.92,167.06 C76.5680777,167.06 81.4619108,170.289305 83.855856,175.002273 C86.071962,174.233369 88.3175426,173.41452 90.5886037,172.548896 C89.0835339,162.362418 88.0521052,151.446326 87.5320018,140.104995 C79.7365252,134.974138 72.4793556,129.750413 65.8735768,124.55413 Z M179.889197,127.624414 L179.481967,127.942208 C172.848184,133.105396 165.668501,138.225482 158.071773,143.199874 C157.569005,152.439464 156.723597,161.376543 155.556746,169.841147 C173.447674,176.662559 189.489019,180.55 201,180.55 C208.33,180.55 213.32,178.94 215,176.02 C216.441372,173.565018 216.014892,169.060588 212.417849,162.530833 C210.668192,163.280965 208.742572,163.697216 206.72,163.7 C198.711871,163.7 192.22,157.208129 192.22,149.2 C192.22,146.109582 193.186812,143.244976 194.834477,140.89214 C190.369068,136.507544 185.35706,132.062483 179.889197,127.624414 Z M92.7088487,143.448219 L92.7533758,144.220519 C93.2886215,153.416491 94.1686824,162.292032 95.3719344,170.67106 C103.434297,167.418449 111.777391,163.606243 120.244739,159.303205 C115.638049,156.903149 110.984227,154.353537 106.31,151.66 C101.635096,148.971338 97.0952286,146.227539 92.7088487,143.448219 Z M152.863832,146.545537 L152.784974,146.595512 C148.888433,149.0504 144.894714,151.462857 140.82,153.82 C137.597588,155.689391 134.372239,157.498435 131.153028,159.243118 C137.811615,162.471847 144.38725,165.391828 150.764776,167.961814 C151.681028,161.105087 152.384419,153.9346 152.863832,146.545537 Z M120.072865,89.3102512 L119.844994,89.430258 C115.724479,91.6165636 111.586324,93.9126471 107.45,96.31 C102.336495,99.2737131 97.357764,102.31941 92.5453977,105.421899 C92.276959,111.124853 92.14,116.94114 92.14,122.83 C92.14,127.734788 92.2346699,132.590581 92.4211081,137.373752 C97.6870405,140.786851 103.158132,144.133237 108.79,147.38 C114.395609,150.614129 120.033099,153.663916 125.634902,156.505329 C129.86053,154.268886 134.108598,151.91398 138.36,149.45 C143.451071,146.495503 148.412004,143.459023 153.210247,140.365251 C153.481646,134.618414 153.62,128.759402 153.62,122.83 C153.62,117.98571 153.527651,113.189214 153.345749,108.463276 C148.059345,105.040957 142.565632,101.685319 136.91,98.43 C131.30806,95.1979885 125.672998,92.1500766 120.072865,89.3102512 Z M122.88,100.38 C135.306407,100.38 145.38,110.453593 145.38,122.88 C145.38,135.306407 135.306407,145.38 122.88,145.38 C110.453593,145.38 100.38,135.306407 100.38,122.88 C100.38,110.453593 110.453593,100.38 122.88,100.38 Z M158.461552,111.839659 L158.484189,112.630764 C158.574416,116.001461 158.62,119.403714 158.62,122.83 C158.62,127.598862 158.531694,132.323192 158.357617,136.98206 C164.515933,132.857961 170.371572,128.649376 175.850254,124.413332 C170.424167,120.181253 164.60168,115.971106 158.461552,111.839659 Z M87.3988126,108.802976 L87.1760141,108.953159 C81.0880513,113.037916 75.3014455,117.202621 69.885628,121.391906 C75.3230102,125.632545 81.1543226,129.852166 87.3020561,133.99253 C87.1946003,130.306586 87.14,126.582373 87.14,122.83 C87.14,118.103341 87.2271281,113.420937 87.3988126,108.802976 Z M201.08,62.47 C193.885243,62.6509115 186.735064,63.6575063 179.77,65.47 C172.098345,67.3125056 163.828415,69.9315784 155.180993,73.230747 C156.683636,83.4059352 157.712887,94.3065937 158.230948,105.634871 C166.034096,110.776735 173.298194,116.009505 179.91054,121.213059 C187.945954,114.75655 195.065994,108.269501 201.01,101.95 C215.02,87.06 220.88,74.76 217.08,68.22 C214.82,64.41 209.27,62.47 201.08,62.47 Z M44.7,65.26 C37.37,65.26 32.38,66.87 30.7,69.79 C28.27,74 31.16,84.29 46.56,100.52 C52.0550737,106.323869 58.564736,112.271691 65.8793956,118.205886 C72.6205847,112.94519 79.9328398,107.724516 87.680133,102.64726 C88.1803926,93.4038774 89.0243331,84.4631782 90.1900546,75.9933751 C72.2652357,69.1565773 56.1971254,65.26 44.7,65.26 Z M150.405004,75.1070768 L149.58018,75.4410882 C141.786145,78.617394 133.732982,82.3111339 125.574141,86.4552567 C130.178007,88.8523601 134.828815,91.3994676 139.5,94.09 C144.158978,96.7753566 148.683637,99.514737 153.055825,102.288781 C152.527579,92.8327906 151.636464,83.7090183 150.405004,75.1070768 Z M94.9806518,77.8723831 L94.9788672,77.8888867 C94.0654653,84.7443928 93.3641464,91.911182 92.8870852,99.2979441 C96.8107344,96.8207307 100.834027,94.3838072 104.94,92 C108.154204,90.1339277 111.371172,88.3280411 114.581981,86.5862211 C107.927681,83.3600665 101.35532,80.4416839 94.9806518,77.8723831 Z M122.88,14 C117.527866,14 112.122459,19.6558349 107.341453,29.8631467 C111.470278,32.4185665 114.22,36.9881673 114.22,42.2 C114.22,46.0456391 112.692326,49.7337708 109.973048,52.4530483 C107.253771,55.1723258 103.565639,56.7 99.72,56.7 C99.3817959,56.7 99.0462962,56.6884211 98.7138757,56.6656382 C97.5739558,61.7408216 96.573369,67.1055002 95.7191236,72.7044748 C103.543386,75.8180788 111.720195,79.4822405 120.088623,83.6582639 C130.138615,78.4238062 140.077468,73.8426671 149.629076,70.0351422 C148.13926,60.8851203 146.249271,52.4009217 143.99,44.83 C138.14,25.24 130.45,14 122.88,14 Z" id="logo_plain_tiny"></path>
        </g>
    </g>
</svg>