<?xml version="1.0" encoding="UTF-8"?>
<svg width="100%" height="100%" viewBox="0 0 32 32" version="1.1" xmlns="http://www.w3.org/2000/svg" xmlns:xlink="http://www.w3.org/1999/xlink">
    <title>Discord</title>
    <g id="icon-social-discord" stroke="none" stroke-width="1" fill="none" fill-rule="evenodd">
        <path d="M25.9852727,6.24131818 C25.9852727,6.24131818 30.7290909,11.3588 30.7290909,20.7247273 L30.7290909,23.6193636 L29.7407273,24.2634545 C26.597,26.312 23.62,27.8429091 22.0921818,27.8429091 L20.9474545,27.8429091 L19.1763636,25.2679091 C18.1876364,25.4560909 17.0608182,25.5924545 15.8645455,25.5924545 C14.6682727,25.5924545 13.5414545,25.4560909 12.5526364,25.2679091 L10.7815455,27.8429091 L9.63686364,27.8429091 C8.10907273,27.8429091 5.13203636,26.312 1.98833636,24.2634545 L1,23.6193636 L1,20.7247273 C1,11.2603364 5.74382727,6.24131818 5.74382727,6.24131818 C5.74382727,6.24131818 9.23413636,4.36135364 13.4691818,4 L14.2336364,5.44897273 C14.6833636,5.40307273 15.2441818,5.36168182 15.8645455,5.36168182 C16.4849091,5.36168182 17.0457273,5.40307273 17.4954545,5.44897273 L18.2599091,4 C22.6443636,4.40034455 25.9852727,6.24131818 25.9852727,6.24131818 Z M28.5523636,22.4397273 L28.5523636,20.7247273 C28.5523636,12.5451909 24.6318182,8.00445455 24.6318182,8.00445455 C24.6318182,8.00445455 21.9500909,6.70633636 19.4733636,6.36473636 L18.705,7.8213 C18.705,7.8213 17.4836364,7.53842727 15.8645455,7.53842727 C14.2454545,7.53842727 13.0240909,7.8213 13.0240909,7.8213 L12.2556364,6.36473636 C9.77898182,6.70633636 7.0973,8.00445455 7.0973,8.00445455 C7.0973,8.00445455 3.17674545,12.5451909 3.17674545,20.7247273 L3.17674545,22.4397273 C3.17674545,22.4397273 8.12794545,25.6661818 9.63686364,25.6661818 L11.1007273,23.5379091 C10.191,23.1304545 8.94998182,22.4230909 8.94998182,22.4230909 L9.40370909,22.072 C9.40370909,22.072 12.3045455,23.4157273 15.8645455,23.4157273 C19.4245455,23.4157273 22.3253636,22.072 22.3253636,22.072 L22.7790909,22.4230909 C22.7790909,22.4230909 21.5380909,23.1304545 20.6283636,23.5379091 L22.0921818,25.6661818 C23.6010909,25.6661818 28.5523636,22.4397273 28.5523636,22.4397273 Z M20.8138182,20.1325455 C19.3519091,20.1325455 18.1667273,18.8012727 18.1667273,17.1590909 C18.1667273,15.5169091 19.3519091,14.1857273 20.8138182,14.1857273 C22.2758182,14.1857273 23.461,15.5169091 23.461,17.1590909 C23.461,18.8012727 22.2758182,20.1325455 20.8138182,20.1325455 Z M10.9151818,20.1325455 C9.45322727,20.1325455 8.26803636,18.8012727 8.26803636,17.1590909 C8.26803636,15.5169091 9.45322727,14.1857273 10.9151818,14.1857273 C12.3771818,14.1857273 13.5622727,15.5169091 13.5622727,17.1590909 C13.5622727,18.8012727 12.3771818,20.1325455 10.9151818,20.1325455 Z" id="discord-light" fill="currentColor" fill-rule="nonzero"></path>
    </g>
</svg>
