<?xml version="1.0" encoding="UTF-8"?>
<svg width="100%" height="100%" viewBox="0 0 32 32" version="1.1" xmlns="http://www.w3.org/2000/svg" xmlns:xlink="http://www.w3.org/1999/xlink">
    <title>Website</title>
    <g id="icon-social-website" stroke="none" stroke-width="1" fill="none" fill-rule="evenodd">
        <path d="M16.5881979,27.1176329 C16.9607868,27.1176329 17.4411969,26.8799042 18.0294283,26.4044467 C18.6176597,25.9289223 19.2328631,25.3186047 19.8750385,24.5734938 C20.517147,23.8284498 21.1225454,23.0294618 21.6912338,22.1765296 C22.2598552,21.3235306 22.7230648,20.5097849 23.0808626,19.7352925 C23.4387273,18.9608002 23.6176597,18.323544 23.6176597,17.8235239 C23.6176597,17.4607734 23.4485323,17.0416695 23.1102775,16.566212 C22.7720896,16.0906876 22.3431807,15.6274446 21.8235507,15.1764828 C21.3039207,14.725521 20.7695999,14.3529656 20.2205884,14.0588164 C19.671577,13.7647342 19.1912003,13.6176931 18.7794584,13.6176931 C18.5343676,13.6176931 18.2549426,13.7034615 17.9411836,13.8749983 C17.6274245,14.0466021 17.3063368,14.2181723 16.9779204,14.3897091 C16.6495041,14.5613129 16.3431405,14.6471147 16.0588298,14.6471147 C15.8529589,14.6471147 15.5980631,14.5613129 15.2941424,14.3897091 C14.9902218,14.2181723 14.688744,14.0024964 14.3897091,13.7426814 C14.0906742,13.4828664 13.8406642,13.2181656 13.639679,12.9485791 C13.4386938,12.6789257 13.3382012,12.4558877 13.3382012,12.2794651 C13.3382012,12.0735272 13.4141981,11.9142048 13.5661919,11.8014979 C13.7181188,11.6887239 13.8970511,11.632337 14.102989,11.632337 C14.3382414,11.632337 14.6176329,11.7328296 14.9411635,11.9338148 C15.2646941,12.1348 15.6102775,12.3357851 15.9779137,12.5367703 C16.3456169,12.7377555 16.7206152,12.8382481 17.1029087,12.8382481 C17.5833188,12.8382481 17.9485122,12.6862878 18.1984888,12.3823671 C18.4485323,12.0784465 18.573554,11.6912003 18.573554,11.2206286 C18.573554,10.9755043 18.5098384,10.7205918 18.3824073,10.455891 C18.2549092,10.1911836 18.0882247,9.89705784 17.8823537,9.57353394 C18.2647141,9.38725956 18.7181522,9.15196367 19.242668,8.86764627 C19.7671838,8.58333556 20.3039474,8.25490583 20.8529589,7.88235707 C21.4019704,7.50980832 21.9044333,7.10049259 22.3603478,6.65440989 C22.8161953,6.20833389 23.1666644,5.7303934 23.4117553,5.22058843 C22.8627438,4.36764962 21.911762,3.68382481 20.5588098,3.16911401 C19.2058576,2.65440989 17.6764493,2.39705784 15.9705851,2.39705784 C14.7156826,2.39705784 13.4877522,2.56372562 12.2867937,2.89705784 C11.0857952,3.23039675 9.99510086,3.67892567 9.0147108,4.24264794 C8.03431405,4.80637691 7.23284297,5.43382816 6.61029756,6.12500167 C5.98774546,6.81618188 5.62254876,7.52451577 5.51470746,8.25000335 C5.42646941,9.02451577 5.65931238,9.83333891 6.21323638,10.6764728 C6.76716037,11.5195865 7.55882648,12.3872194 8.5882347,13.2793714 L10.7353026,15.1470679 C11.0784632,15.4509885 11.343174,15.6911936 11.529435,15.8676831 C11.715696,16.0441056 11.8088265,16.2254809 11.8088265,16.4118088 C11.8088265,16.6176797 11.7499967,16.8137457 11.632337,17.0000067 C11.5146773,17.1862677 11.3970511,17.3798908 11.2794584,17.580876 C11.1617988,17.7818611 11.1029689,18.0196233 11.1029689,18.2941625 C11.1029689,19.029435 11.4755244,19.671577 12.2206353,20.2205884 C13.0147376,20.8186582 13.6250218,21.2696534 14.0514878,21.5735741 C14.4779539,21.8774947 14.7720696,22.1152235 14.9338348,22.2867603 C15.0956001,22.458364 15.1764828,22.6323772 15.1764828,22.8087997 C15.1862543,23.2990483 15.0955667,23.7426814 14.9044199,24.1396991 C14.7132732,24.5367837 14.6176998,24.9608069 14.6176998,25.4117686 C14.6176998,25.813739 14.8309328,26.1985423 15.2573989,26.5661785 C15.683865,26.9338148 16.1274646,27.1176329 16.5881979,27.1176329 Z M16,31 C18.0490048,31 19.9779405,30.6078346 21.7868071,29.8235038 C23.5956068,29.03924 25.1911735,27.9559077 26.5735072,26.5735072 C27.9559077,25.1911735 29.03924,23.5956068 29.8235038,21.7868071 C30.6078346,19.9779405 31,18.0490048 31,16 C31,13.9509952 30.6078346,12.0220762 29.8235038,10.2132431 C29.03924,8.40441659 27.9559077,6.80882648 26.5735072,5.42647275 C25.1911735,4.04411902 23.5931305,2.96078681 21.7793781,2.1764761 C19.9656926,1.3921587 18.0343475,1 15.9853427,1 C13.936271,1 12.0073353,1.3921587 10.1985356,2.1764761 C8.38970913,2.96078681 6.79657194,4.04411902 5.41912404,5.42647275 C4.04166946,6.80882648 2.96078681,8.40441659 2.1764761,10.2132431 C1.3921587,12.0220762 1,13.9509952 1,16 C1,18.0490048 1.3921587,19.9779405 2.1764761,21.7868071 C2.96078681,23.5956068 4.04411902,25.1911735 5.42647275,26.5735072 C6.80882648,27.9559077 8.40441659,29.03924 10.2132431,29.8235038 C12.0220762,30.6078346 13.9509952,31 16,31 Z M16.0000033,28.9999866 C14.2254675,28.9999866 12.5539006,28.6593224 10.9852992,27.977994 C9.41667113,27.2965987 8.0343174,26.3578647 6.83823805,25.1617921 C5.6421587,23.9657194 4.70343141,22.5833523 4.02205617,21.0146907 C3.34068762,19.4460961 3.00000335,17.7745325 3.00000335,16.0000033 C3.00000335,14.2254675 3.34068762,12.5539006 4.02205617,10.9852992 C4.70343141,9.41667113 5.63970913,8.0343174 6.83088934,6.83823805 C8.02206286,5.6421587 9.40196367,4.70343141 10.9705918,4.02205617 C12.5392266,3.34068762 14.2108102,3.00000335 15.9853427,3.00000335 C17.7598083,3.00000335 19.4313719,3.34068762 21.0000335,4.02205617 C22.5686281,4.70343141 23.9534381,5.6421587 25.1544634,6.83823805 C26.3554218,8.0343174 27.2965987,9.41667113 27.977994,10.9852992 C28.6593224,12.5539006 28.9999866,14.2254675 28.9999866,16.0000033 C28.9999866,17.7745325 28.6593224,19.4460961 27.977994,21.0146907 C27.2965987,22.5833523 26.3578647,23.9657194 25.1617921,25.1617921 C23.9657194,26.3578647 22.5833523,27.2965987 21.0146907,27.977994 C19.4460961,28.6593224 17.7745325,28.9999866 16.0000033,28.9999866 Z" id="website-light" fill="currentColor" fill-rule="nonzero"></path>
    </g>
</svg>
