<?xml version="1.0" encoding="UTF-8" standalone="no"?>
<!DOCTYPE svg PUBLIC "-//W3C//DTD SVG 1.1//EN" "http://www.w3.org/Graphics/SVG/1.1/DTD/svg11.dtd">
<!-- Created with Vectornator (http://vectornator.io/) -->
<svg height="100%" stroke-miterlimit="10" style="fill-rule:nonzero;clip-rule:evenodd;stroke-linecap:round;stroke-linejoin:round;" version="1.1" viewBox="0 0 32 32" width="100%" xml:space="preserve" xmlns="http://www.w3.org/2000/svg" xmlns:vectornator="http://vectornator.io" xmlns:xlink="http://www.w3.org/1999/xlink">
<defs/>
<g id="icon-social-twitter" vectornator:layerName="icon-social-twitter">
<path d="M16.0001 1C24.2843 1 31 7.71573 31 16.0001C31 24.2843 24.2843 31 16.0001 31C7.71575 31 1 24.2843 1 16.0001C1 7.71573 7.71575 1 16.0001 1ZM16.0001 29.1277C23.2503 29.1277 29.1277 23.2502 29.1277 16.0001C29.1277 8.74974 23.2503 2.87231 16.0001 2.87231C12.0402 2.87231 8.48982 4.62555 6.08287 7.39813C4.08285 9.70198 2.87231 12.7096 2.87231 16.0001C2.87231 23.2502 8.74977 29.1277 16.0001 29.1277Z" fill="#000000" fill-rule="nonzero" opacity="1" stroke="none" vectornator:layerName="path"/>
<g opacity="1" vectornator:layerName="Butterfly">
<path d="M24.7618 10.1654C24.7618 9.08699 24.0878 8.75 23.279 8.75C21.2571 8.75 15.663 13.8049 15.663 17.8488C15.663 22.2971 19.0329 24.2517 19.5721 24.2517C20.7179 24.2517 22.2007 22.7689 22.8747 21.0839C23.2116 20.2752 22.6725 17.8488 19.2351 17.8488C24.0204 17.8488 24.7618 16.703 24.7618 10.1654Z" fill="#000000" fill-rule="nonzero" opacity="1" stroke="none" vectornator:layerName="path"/>
<path d="M7.23819 10.1654C7.23819 9.08699 7.91217 8.75 8.72096 8.75C10.7429 8.75 16.337 13.8049 16.337 17.8488C16.337 22.2971 12.9671 24.2517 12.4279 24.2517C11.2821 24.2517 9.79933 22.7689 9.12535 21.0839C8.78836 20.2752 9.32754 17.8488 12.7649 17.8488C7.97957 17.8488 7.23819 16.703 7.23819 10.1654Z" fill="#000000" fill-rule="nonzero" opacity="1" stroke="none" vectornator:layerName="path"/>
</g>
</g>
</svg>
