<?xml version="1.0" encoding="UTF-8"?>
<svg width="100%" height="100%" viewBox="0 0 32 32" version="1.1" xmlns="http://www.w3.org/2000/svg" xmlns:xlink="http://www.w3.org/1999/xlink">
    <title>Instagram</title>
    <g id="icon-social-instagram" stroke="none" stroke-width="1" fill="none" fill-rule="evenodd">
        <path d="M23.422255,7.1743964 C24.1956757,7.17252899 24.8237278,7.79751845 24.82554,8.57100299 C24.8274497,9.34451943 24.2024816,9.97251835 23.4289545,9.97438347 C22.6554274,9.9762403 22.0274816,9.35126147 22.0255636,8.5777663 C22.0237597,7.80427112 22.6487279,7.17626157 23.422255,7.1743964 Z M15.9826132,8.78717362 C19.9658416,8.77760299 23.2031918,11.9994592 23.2127838,15.9826132 C23.2223332,19.9657353 20.0005089,23.2030854 16.0173868,23.2127838 C12.0341796,23.2223332 8.79680824,20.0005089 8.78717367,16.0172805 C8.77761362,12.0341903 11.9994485,8.79677634 15.9826132,8.78717362 Z M16.0126015,21.2639663 C18.9196553,21.2569321 21.2709692,18.8942397 21.2639663,15.9872922 C21.2569321,13.0803447 18.8942397,10.7289989 15.9872922,10.73597 C13.0803447,10.7430147 10.7290095,13.1056539 10.7359595,16.0126015 C10.7430147,18.9196553 13.1056539,21.2709692 16.0126015,21.2639663 Z M30,15.936142 L30,16.1323418 C30,28.9933727 28.993479,30 16.1323418,30 L15.8676582,30 C3.00651675,30 2,28.9933727 2,16.1323418 L2,15.8676582 C2,3.00651781 3.00651675,2 15.8676582,2 L16.063858,2 C28.988481,2 30,3.01149034 30,15.936142 Z M28.0511882,18.0543556 L28.0511882,13.945538 C28.0511882,4.67436831 27.3256211,3.94879056 18.0543556,3.94879056 L13.945538,3.94879056 C4.67436831,3.94879056 3.94877992,4.67436831 3.94877992,13.945538 L3.94877992,18.0543556 C3.94877992,27.3256211 4.67436831,28.0511882 13.945538,28.0511882 L18.0543556,28.0511882 C27.3256211,28.0511882 28.0511882,27.3256211 28.0511882,18.0543556 Z" id="instagram-light" fill="currentColor" fill-rule="nonzero"></path>
    </g>
</svg>
