<?xml version="1.0" encoding="UTF-8"?>
<svg width="100%" height="100%" viewBox="0 0 32 32" version="1.1" xmlns="http://www.w3.org/2000/svg" xmlns:xlink="http://www.w3.org/1999/xlink">
    <title>App Store</title>
    <g id="icon-social-appstore" stroke="none" stroke-width="1" fill="none" fill-rule="evenodd">
        <path d="M1,15.92479 C1,7.682035 7.68208,1 15.924805,1 C24.1675,1 30.84955,7.682035 30.84955,15.92479 C30.84955,24.1675 24.1675,30.84955 15.924805,30.84955 C7.68208,30.84955 1,24.1675 1,15.92479 Z M3.39442,15.92479 C3.39442,22.8451 9.00448,28.45525 15.924805,28.45525 C22.8451,28.45525 28.45525,22.8451 28.45525,15.92479 C28.45525,9.00445 22.8451,3.39442 15.924805,3.39442 C9.00448,3.39442 3.39442,9.00445 3.39442,15.92479 Z M14.98444,11.581765 C14.17468,10.170565 13.60105,9.170725 13.547575,9.07759 C13.24939,8.55796 13.429,7.89514 13.94854,7.59703 C14.468125,7.298905 15.1309,7.478335 15.429085,7.997965 C15.467245,8.06446 15.770875,8.59369 16.2349,9.40246 C15.892645,9.999055 15.462385,10.74883 14.98444,11.581765 Z M23.12785,21.41515 C23.42605,21.9349 23.2465,22.59775 22.7269,22.8958 C22.20745,23.19385 21.54445,23.01445 21.2464,22.49485 C21.1408,22.3108 19.0129,18.60235 17.02045,15.129955 C16.54075,13.88287 16.6789,12.72418 17.5351,11.668195 C19.7704,15.563785 22.9972,21.18745 23.12785,21.41515 Z M13.2841,17.82265 C12.37543,17.82265 11.522455,17.82265 10.78321,17.82265 C13.0198,13.924645 16.2889,8.22724 16.4206,7.997965 C16.7188,7.478335 17.3815,7.298905 17.9011,7.59703 C18.4207,7.89514 18.60025,8.55796 18.30205,9.07759 C18.1822,9.286435 15.459055,14.03218 13.2841,17.82265 Z M9.53842,19.99195 C10.37104,19.7806 11.094835,19.95085 11.673835,20.62915 C11.061535,21.69625 10.648255,22.41655 10.603285,22.49485 C10.305115,23.01445 9.64225,23.19385 9.12265,22.8958 C8.60311,22.59775 8.423605,21.9349 8.721775,21.41515 C8.760175,21.34825 9.06844,20.81095 9.53842,19.99195 Z M17.0224,17.29555 C17.7922,17.40325 18.7225,18.22105 18.2671,19.46485 C13.89787,19.46485 8.430865,19.46485 8.19025,19.46485 C7.591135,19.46485 7.10563,18.97915 7.10563,18.3802 C7.10563,17.7811 7.591135,17.29555 8.19025,17.29555 C8.40847,17.29555 12.92449,17.29555 17.0224,17.29555 Z M23.65945,17.29555 C24.2584,17.29555 24.74395,17.7811 24.74395,18.3802 C24.74395,18.97915 24.2584,19.46485 23.65945,19.46485 C23.5519,19.46485 22.39735,19.46485 20.76805,19.46485 C20.4073,18.83605 19.9837,18.0976 19.52335,17.29555 C21.78775,17.29555 23.5261,17.29555 23.65945,17.29555 Z" id="appstore-light" fill="currentColor" fill-rule="nonzero"></path>
    </g>
</svg>
