<?xml version="1.0" encoding="UTF-8"?>
<svg width="100%" height="100%" viewBox="0 0 32 32" version="1.1" xmlns="http://www.w3.org/2000/svg" xmlns:xlink="http://www.w3.org/1999/xlink">
    <title>icon-social-website</title>
    <g id="icon-social-website" stroke="none" stroke-width="1" fill="none" fill-rule="evenodd">
        <path d="M16.5273,27.0156 C16.8984333,27.0156 17.3769667,26.7788 17.9629,26.3052 C18.5488333,25.8315333 19.1616333,25.2236 19.8013,24.4814 C20.4409,23.7392667 21.0439333,22.9434 21.6104,22.0938 C22.1768,21.2441333 22.6382,20.4335667 22.9946,19.6621 C23.3510667,18.8906333 23.5293,18.2558667 23.5293,17.7578 C23.5293,17.3964667 23.3608333,16.979 23.0239,16.5054 C22.6870333,16.0317333 22.2598,15.5703 21.7422,15.1211 C21.2246,14.6719 20.6923667,14.3008 20.1455,14.0078 C19.5986333,13.7148667 19.1201333,13.5684 18.71,13.5684 C18.4658667,13.5684 18.1875333,13.6538333 17.875,13.8247 C17.5624667,13.9956333 17.2426333,14.1665333 16.9155,14.3374 C16.5883667,14.5083333 16.2832,14.5938 16,14.5938 C15.7949333,14.5938 15.5410333,14.5083333 15.2383,14.3374 C14.9355667,14.1665333 14.6352667,13.9517 14.3374,13.6929 C14.0395333,13.4341 13.7905,13.1704333 13.5903,12.9019 C13.3901,12.6333 13.29,12.4111333 13.29,12.2354 C13.29,12.0302667 13.3657,11.8715667 13.5171,11.7593 C13.6684333,11.6469667 13.8466667,11.5908 14.0518,11.5908 C14.2861333,11.5908 14.5644333,11.6909 14.8867,11.8911 C15.2089667,12.0913 15.5532,12.2915 15.9194,12.4917 C16.2856667,12.6919 16.6592,12.792 17.04,12.792 C17.5185333,12.792 17.8823,12.6406333 18.1313,12.3379 C18.3803667,12.0351667 18.5049,11.6494333 18.5049,11.1807 C18.5049,10.9365333 18.4414333,10.6826167 18.3145,10.41895 C18.1875,10.1552767 18.0214667,9.86230667 17.8164,9.54004 C18.1972667,9.35449333 18.6489333,9.12011667 19.1714,8.83691 C19.6938667,8.55371 20.2285333,8.22656333 20.7754,7.85547 C21.3222667,7.48437667 21.8227667,7.07666 22.2769,6.63232 C22.7309667,6.18798667 23.0800667,5.71191333 23.3242,5.2041 C22.7773333,4.35449333 21.8300667,3.67334 20.4824,3.16064 C19.1347333,2.64794667 17.6113,2.3916 15.9121,2.3916 C14.6621,2.3916 13.4389667,2.55761667 12.2427,2.88965 C11.0463933,3.22168333 9.95996,3.66846 8.9834,4.22998 C8.00683333,4.79150667 7.20849333,5.41650667 6.58838,6.10498 C5.96826,6.79346 5.60449,7.49902667 5.49707,8.22168 C5.40917667,8.99316667 5.64111,9.79883 6.19287,10.63867 C6.74463,11.47849 7.53320333,12.3427333 8.55859,13.2314 L10.69727,15.0918 C11.03909,15.3945333 11.3027667,15.6338 11.4883,15.8096 C11.6738333,15.9853333 11.7666,16.166 11.7666,16.3516 C11.7666,16.5566667 11.708,16.7519667 11.5908,16.9375 C11.4736,17.1230333 11.3564333,17.3159 11.2393,17.5161 C11.1221,17.7163 11.0635,17.9531333 11.0635,18.2266 C11.0635,18.959 11.4346,19.5986333 12.1768,20.1455 C12.9678,20.7412333 13.5757,21.1904667 14.0005,21.4932 C14.4253,21.7959333 14.7182667,22.0327333 14.8794,22.2036 C15.0405333,22.3745333 15.1211,22.5478667 15.1211,22.7236 C15.1308333,23.2119333 15.0405,23.6538333 14.8501,24.0493 C14.6597,24.4448333 14.5645,24.8672 14.5645,25.3164 C14.5645,25.7168 14.7769,26.1001 15.2017,26.4663 C15.6265,26.8325 16.0683667,27.0156 16.5273,27.0156 Z M15.9414,30.8828 C17.9824,30.8828 19.9038,30.4921667 21.7056,29.7109 C23.5073333,28.9297 25.0966667,27.8506 26.4736,26.4736 C27.8506,25.0966667 28.9297,23.5073333 29.7109,21.7056 C30.4921667,19.9038 30.8828,17.9824 30.8828,15.9414 C30.8828,13.9004 30.4921667,11.9790167 29.7109,10.17725 C28.9297,8.37549 27.8506,6.78613333 26.4736,5.40918 C25.0966667,4.03222667 23.5048667,2.95312667 21.6982,2.17188 C19.8916,1.39062667 17.9678,1 15.9268,1 C13.8857333,1 11.9643333,1.39062667 10.1626,2.17188 C8.36084,2.95312667 6.77392667,4.03222667 5.40186,5.40918 C4.02978667,6.78613333 2.95312667,8.37549 2.17188,10.17725 C1.39062667,11.9790167 1,13.9004 1,15.9414 C1,17.9824 1.39062667,19.9038 2.17188,21.7056 C2.95312667,23.5073333 4.03222667,25.0966667 5.40918,26.4736 C6.78613333,27.8506 8.37549,28.9297 10.17725,29.7109 C11.9790167,30.4921667 13.9004,30.8828 15.9414,30.8828 Z M15.9414,28.8906 C14.1738,28.8906 12.5087633,28.5512667 10.94629,27.8726 C9.38379,27.1938667 8.00683667,26.2588 6.81543,25.0674 C5.62402333,23.876 4.68896333,22.4990333 4.01025,20.9365 C3.33154333,19.3740333 2.99219,17.709 2.99219,15.9414 C2.99219,14.1738 3.33154333,12.5087633 4.01025,10.94629 C4.68896333,9.38379 5.62158333,8.00683667 6.80811,6.81543 C7.99463,5.62402333 9.36914,4.68896333 10.93164,4.01025 C12.4941467,3.33154333 14.1592,2.99219 15.9268,2.99219 C17.6943333,2.99219 19.3593667,3.33154333 20.9219,4.01025 C22.4843667,4.68896333 23.8637667,5.62402333 25.0601,6.81543 C26.2563667,8.00683667 27.1938667,9.38379 27.8726,10.94629 C28.5512667,12.5087633 28.8906,14.1738 28.8906,15.9414 C28.8906,17.709 28.5512667,19.3740333 27.8726,20.9365 C27.1938667,22.4990333 26.2588,23.876 25.0674,25.0674 C23.876,26.2588 22.4990333,27.1938667 20.9365,27.8726 C19.3740333,28.5512667 17.709,28.8906 15.9414,28.8906 Z" id="website-light" fill="currentColor" fill-rule="nonzero"></path>
    </g>
</svg>
