<?xml version="1.0" encoding="UTF-8"?>
<svg width="100%" height="100%" viewBox="0 0 32 32" version="1.1" xmlns="http://www.w3.org/2000/svg" xmlns:xlink="http://www.w3.org/1999/xlink">
    <title>Play</title>
    <g id="icon-play" stroke="none" stroke-width="1" fill="none" fill-rule="evenodd">
        <path d="M5.72858574,26.5 L26.2714224,26.5 C27.5222258,26.5 28.4563427,26.2053115 29.0737732,25.6159346 C29.6912577,25.0266095 30,24.1463857 30,22.9752631 L30,9.0361216 C30,7.86501976 29.6912577,6.98289071 29.0737732,6.38973442 C28.4563427,5.79657814 27.5222258,5.5 26.2714224,5.5 L5.72858574,5.5 C4.48572112,5.5 3.55357401,5.7946755 2.93214441,6.38402651 C2.3107148,6.9733827 2,7.8574144 2,9.0361216 L2,22.9752631 C2,24.1463857 2.3107148,25.0266095 2.93214441,25.6159346 C3.55357401,26.2053115 4.48572112,26.5 5.72858574,26.5 Z M13.7438522,20.6026224 C13.4588885,20.7699404 13.1837874,20.7984671 12.918549,20.6882022 C12.6533646,20.5779374 12.5207724,20.3821187 12.5207724,20.1007461 L12.5207724,11.9220467 C12.5207724,11.6406793 12.6593092,11.4505659 12.9363828,11.3517065 C13.2134565,11.2528471 13.4826129,11.2756606 13.7438522,11.420147 L20.7260589,15.3897277 C20.9714639,15.5342038 21.0961389,15.7433384 21.100084,16.0171315 C21.104029,16.2908728 20.979354,16.5037971 20.7260589,16.6559044 L13.7438522,20.6026224 Z" fill="currentColor" fill-rule="nonzero"></path>
    </g>
</svg>
