<?xml version="1.0" encoding="UTF-8" standalone="no"?>
<!DOCTYPE svg PUBLIC "-//W3C//DTD SVG 1.1//EN" "http://www.w3.org/Graphics/SVG/1.1/DTD/svg11.dtd">
<!-- Created with Vectornator (http://vectornator.io/) -->
<svg height="100%" stroke-miterlimit="10" style="fill-rule:nonzero;clip-rule:evenodd;stroke-linecap:round;stroke-linejoin:round;" version="1.1" viewBox="0 0 32 32" width="100%" xml:space="preserve" xmlns="http://www.w3.org/2000/svg" xmlns:vectornator="http://vectornator.io" xmlns:xlink="http://www.w3.org/1999/xlink">
<defs/>
<g id="icon-social-mastodon" vectornator:layerName="icon-social-mastodon">
<path d="M16.0001 1C24.2843 1 31 7.71573 31 16.0001C31 24.2843 24.2843 31 16.0001 31C7.71575 31 1 24.2843 1 16.0001C1 7.71573 7.71575 1 16.0001 1ZM16.0001 29.1277C23.2503 29.1277 29.1277 23.2502 29.1277 16.0001C29.1277 8.74974 23.2503 2.87231 16.0001 2.87231C8.74977 2.87231 2.87231 8.74974 2.87231 16.0001C2.87231 23.2502 8.74977 29.1277 16.0001 29.1277Z" fill="#000000" fill-rule="nonzero" opacity="1" stroke="none" vectornator:layerName="path"/>
<path d="M16.1423 7.29732C13.949 7.30621 11.7712 7.58468 10.638 8.10715C10.638 8.10715 8.2 9.21698 8.2 12.9973C8.2 17.4973 8.19673 23.1485 12.2392 24.2414C13.7874 24.6575 15.1188 24.747 16.1891 24.6853C18.1316 24.5756 19.0923 23.9804 19.0923 23.9804L19.0271 22.5451C19.0271 22.5451 17.768 22.9888 16.209 22.938C14.6644 22.8835 13.0373 22.7676 12.7838 20.8389C12.7606 20.6596 12.7491 20.478 12.7498 20.2972C16.0226 21.1097 18.8133 20.6511 19.5816 20.5581C21.7267 20.2974 23.594 18.9524 23.8322 17.723C24.2054 15.7856 24.174 12.9973 24.174 12.9973C24.174 9.21698 21.7402 8.10715 21.7402 8.10715C20.5453 7.5491 18.3357 7.28842 16.1423 7.29732ZM13.7951 10.1807C14.5465 10.2008 15.2891 10.537 15.7466 11.2472L16.1891 11.9989L16.6302 11.2472C17.5488 9.81885 19.6076 9.90797 20.5872 11.0132C21.4905 12.0647 21.2892 12.7433 21.2892 17.4408L21.2892 17.4422L19.5121 17.4422L19.5121 13.3547C19.5121 11.4413 17.0727 11.3674 17.0727 13.62L17.0727 15.9885L15.3069 15.9885L15.3069 13.62C15.3069 11.3674 12.8689 11.4399 12.8689 13.3533L12.8689 17.4408L11.0876 17.4408C11.0876 12.7397 10.8899 12.0567 11.7896 11.0132C12.2831 10.4569 13.0436 10.1605 13.7951 10.1807Z" fill="#000000" fill-rule="nonzero" opacity="1" stroke="none" vectornator:layerName="path 1"/>
</g>
</svg>
