<?xml version="1.0" encoding="UTF-8"?>
<svg width="100%" height="100%" viewBox="0 0 32 32" version="1.1" xmlns="http://www.w3.org/2000/svg" xmlns:xlink="http://www.w3.org/1999/xlink">
    <title>Facebook</title>
    <g id="icon-social-facebook" stroke="none" stroke-width="1" fill="none" fill-rule="evenodd">
        <path d="M17.8426448,30.1910365 L13.8851806,30.1910365 L13.8851806,20.5014559 L10.5766751,20.5014559 L10.5766751,16.5660599 L13.8851806,16.5660599 C13.8851806,16.5660599 13.8851806,15.4062527 13.8851806,14.8106152 C13.8851806,12.7511196 14.0448686,11.0642601 15.1560441,9.92117765 C16.2487272,8.79725169 17.6131762,8.4478996 18.8521634,8.4478996 C20.326647,8.4478996 21.7704804,8.61484155 21.7704804,8.61484155 L21.7704804,12.135866 C21.7704804,12.135866 20.1478536,12.1580363 19.3641255,12.1580363 C18.5803974,12.1580363 17.8426448,12.7184259 17.8426448,13.8101895 C17.8426448,14.3683314 17.8426448,16.5660599 17.8426448,16.5660599 L21.6372537,16.5660599 L21.1434774,20.5014559 L17.8426448,20.5014559 L17.8426448,30.1910365 Z M16.0000511,1 C24.2843156,1 31,7.71571509 31,16.0000511 C31,24.2843156 24.2843156,31 16.0000511,31 C7.71574574,31 1,24.2843156 1,16.0000511 C1,7.71571509 7.71574574,1 16.0000511,1 Z M16.0000511,29.1276755 C23.2502767,29.1276755 29.1276755,23.2501745 29.1276755,16.0000511 C29.1276755,8.74977438 23.2502767,2.87231427 16.0000511,2.87231427 C8.74980503,2.87231427 2.87231427,8.74977438 2.87231427,16.0000511 C2.87231427,23.2501745 8.74980503,29.1276755 16.0000511,29.1276755 Z" id="facebook-light" fill="currentColor" fill-rule="nonzero"></path>
    </g>
</svg>
