<?xml version="1.0" encoding="UTF-8" standalone="no"?>
<!DOCTYPE svg PUBLIC "-//W3C//DTD SVG 1.1//EN" "http://www.w3.org/Graphics/SVG/1.1/DTD/svg11.dtd">
<!-- Created with Vectornator (http://vectornator.io/) -->
<svg height="100%" stroke-miterlimit="10" style="fill-rule:nonzero;clip-rule:evenodd;stroke-linecap:round;stroke-linejoin:round;" version="1.1" viewBox="0 0 32 32" width="100%" xml:space="preserve" xmlns="http://www.w3.org/2000/svg" xmlns:vectornator="http://vectornator.io" xmlns:xlink="http://www.w3.org/1999/xlink">
<defs/>
<g id="icon-social-threads" vectornator:layerName="icon-social-threads">
<path d="M16.0001 1C24.2843 1 31 7.71573 31 16.0001C31 24.2843 24.2843 31 16.0001 31C7.71575 31 1 24.2843 1 16.0001C1 7.71573 7.71575 1 16.0001 1ZM16.0001 29.1277C23.2503 29.1277 29.1277 23.2502 29.1277 16.0001C29.1277 8.74974 23.2503 2.87231 16.0001 2.87231C8.74977 2.87231 2.87231 8.74974 2.87231 16.0001C2.87231 23.2502 8.74977 29.1277 16.0001 29.1277Z" fill="#000000" fill-rule="nonzero" opacity="1" stroke="none" vectornator:layerName="path"/>
<path d="M16.1297 6.40156C13.3145 6.42076 11.1453 7.37434 9.67969 9.23594C8.38849 10.8783 7.72164 13.1518 7.69844 16.0094C7.72084 18.8502 8.38769 21.1225 9.67969 22.7641C11.1445 24.6257 13.3149 25.5792 16.1453 25.5984C18.6477 25.5816 20.4165 24.9202 21.8797 23.4578C23.8237 21.5154 23.7627 19.0788 23.1203 17.5812C22.6563 16.4996 21.7789 15.6244 20.5797 15.05C20.5517 15.0356 20.5226 15.023 20.4938 15.0094C20.2826 12.3054 18.7226 10.7512 16.1578 10.7344C14.6026 10.7344 13.3063 11.4028 12.5063 12.6172C12.4167 12.7532 12.4523 12.9361 12.5875 13.0297L13.9219 13.9453C13.9883 13.9909 14.07 14.0074 14.1484 13.9922C14.2268 13.977 14.2982 13.9297 14.3422 13.8625C14.8254 13.1305 15.5965 12.9781 16.1797 12.9781C16.8885 12.9821 17.4149 13.1785 17.7453 13.5625C17.9237 13.7697 18.0603 14.0407 18.1547 14.3703C17.5491 14.2975 16.9049 14.2803 16.2313 14.3188C13.7465 14.4619 12.1482 15.934 12.2578 17.9828C12.313 19.0276 12.8331 19.9276 13.7219 20.5156C14.4563 20.9996 15.3997 21.2396 16.3797 21.1844C17.6765 21.1132 18.6965 20.6144 19.4125 19.7016C19.8709 19.1184 20.1803 18.4019 20.3547 17.5219C20.6923 17.7947 20.9401 18.1142 21.0953 18.4766C21.4593 19.323 21.4784 20.7169 20.3328 21.8609C19.2976 22.8953 18.0422 23.3442 16.1406 23.3578C14.027 23.3418 12.435 22.6712 11.4078 21.3656C10.4326 20.1256 9.92778 18.3207 9.90938 16.0031C9.92778 13.6807 10.4326 11.8744 11.4078 10.6344C12.435 9.32877 14.0271 8.65739 16.1359 8.64219C18.2679 8.65819 19.8898 9.33324 20.9578 10.6484C21.4802 11.2916 21.8805 12.1063 22.1469 13.0719C22.1909 13.2303 22.3557 13.3236 22.5141 13.2828L24.0781 12.8656C24.1557 12.8456 24.2209 12.7938 24.2609 12.725C24.3001 12.6546 24.3099 12.5729 24.2891 12.4953C23.9443 11.2273 23.3969 10.1267 22.6609 9.22187C21.1553 7.36987 18.9641 6.42076 16.1297 6.40156ZM16.8984 16.5391C17.376 16.5391 17.8315 16.5764 18.2563 16.6516C18.0291 18.5828 17.1234 18.8989 16.2578 18.9469C15.6642 18.9701 15.114 18.8218 14.7844 18.5266C14.5836 18.3466 14.4745 18.1225 14.4609 17.8609C14.4305 17.2841 14.9115 16.6387 16.3547 16.5547C16.5387 16.5443 16.72 16.5391 16.8984 16.5391Z" fill="#000000" fill-rule="nonzero" opacity="1" stroke="none" vectornator:layerName="path 1"/>
</g>
</svg>
