<?xml version="1.0" encoding="UTF-8"?>
<svg width="100%" height="100%" viewBox="0 0 32 32" version="1.1" xmlns="http://www.w3.org/2000/svg" xmlns:xlink="http://www.w3.org/1999/xlink">
    <title>Twitter</title>
    <g id="icon-social-twitter" stroke="none" stroke-width="1" fill="none" fill-rule="evenodd">
        <path d="M16.0000511,1 C24.2843156,1 31,7.71572531 31,16.0000511 C31,24.2843156 24.2843156,31 16.0000511,31 C7.71574574,31 1,24.2843156 1,16.0000511 C1,7.71572531 7.71574574,1 16.0000511,1 Z M16.0000511,29.1276755 C23.2502767,29.1276755 29.1276755,23.2501745 29.1276755,16.0000511 C29.1276755,8.74974373 23.2502767,2.87231427 16.0000511,2.87231427 C8.74977438,2.87231427 2.87231427,8.74974373 2.87231427,16.0000511 C2.87231427,23.2501745 8.74977438,29.1276755 16.0000511,29.1276755 Z M23.8166942,13.2097502 C23.8238459,13.3697448 23.8274218,13.5303523 23.8274218,13.6917772 C23.8274218,18.61728 20.1233334,24.2971887 13.3474722,24.2971887 C11.26693,24.2971887 8.55613602,23.560049 7.70099273,22.6226608 C7.99003525,22.6580108 8.28341989,22.6752771 8.58035997,22.6752771 C10.3063599,22.6752771 11.8949546,22.0793332 13.1552948,21.0793162 C11.5431914,21.0497897 10.1831968,19.9711036 9.71392034,18.4904899 C10.4466463,18.6071654 11.3772711,18.4263286 11.3772711,18.4263286 C11.3772711,18.4263286 8.49706268,17.9263201 8.42227595,14.7249987 C9.25536125,15.2134623 10.0906125,15.1911897 10.0906125,15.1911897 C10.0906125,15.1911897 8.42940726,14.1565379 8.4528956,12.0892775 C8.46640217,10.870213 8.95064621,10.2145316 8.95064621,10.2145316 C12.0978596,14.1363087 16.5431743,14.1096429 16.5431743,14.1096429 C16.5431743,14.1096429 16.4477498,13.552727 16.4477498,13.2609362 C16.4477498,11.203065 18.0968379,9.5336353 20.1312003,9.5336353 C21.1906789,9.5336353 22.1476833,9.9861052 22.8198444,10.7109643 C23.6600712,10.5430926 24.4482947,10.2332385 25.159688,9.80600405 C24.8384729,11.1079469 23.5404329,11.8681867 23.5404329,11.8681867 C23.5404329,11.8681867 24.6519148,11.7427248 25.6566315,11.280927 C25.1631617,12.0280791 24.5379979,12.6837911 23.8166942,13.2097502 Z" id="twitter-light" fill="currentColor" fill-rule="nonzero"></path>
    </g>
</svg>
