<?xml version="1.0" encoding="UTF-8"?>
<svg width="100%" height="100%" viewBox="0 0 32 32" version="1.1" xmlns="http://www.w3.org/2000/svg" xmlns:xlink="http://www.w3.org/1999/xlink">
    <title>Instagram</title>
    <g id="icon-social-instagram" stroke="none" stroke-width="1" fill="none" fill-rule="evenodd">
        <path d="M22.8973,7.74678598 C23.6431,7.74499 24.2486,8.34761 24.250404,9.09339 C24.2522,9.8392 23.6496,10.44471 22.9038,10.446504 C22.158,10.4483 21.5525,9.84571 21.550696,9.0999 C21.5489,8.3541 22.1515,7.74859 22.8973,7.74678598 Z M15.9822,9.17296968 C19.7516,9.16389 22.8151,12.21282 22.8242203,15.9821 C22.8333,19.7515 19.7844,22.8151 16.0151,22.8242203 C12.24567,22.8333 9.18207,19.7844 9.17296977,16.015 C9.16391,12.24568 12.2128,9.18206 15.9822,9.17296968 Z M16.0093,20.4298132 C18.4563,20.4239 20.4357,18.435 20.4298132,15.9879 C20.4239,13.5408 18.435,11.5615 15.9879,11.5673769 C13.5408,11.57331 11.56152,13.5622 11.5673571,16.0093 C11.57331,18.4564 13.5622,20.4357 16.0093,20.4298132 Z M29.4972,15.9757 L29.4972,16.1223 C29.4972,28.5264 28.5265,29.4972 16.1223,29.4972 L15.8749,29.4972 C3.470741,29.4972 2.5,28.5264 2.5,16.1223 L2.5,15.8749 C2.5,3.470756 3.470741,2.5 15.8749,2.5 L16.0215,2.5 C28.5191,2.5 29.4972,3.478075 29.4972,15.9757 Z M27.1028,18.4309 L27.1028,13.5663 C27.1028,5.52383 26.4734,4.8944 18.4309,4.8944 L13.5663,4.8944 C5.52382,4.8944 4.89438,5.52383 4.89438,13.5663 L4.89438,18.4309 C4.89438,26.4734 5.52382,27.1028 13.5663,27.1028 L18.4309,27.1028 C26.4734,27.1028 27.1028,26.4734 27.1028,18.4309 Z" id="instagram-light" fill="currentColor" fill-rule="nonzero"></path>
    </g>
</svg>
