<?xml version="1.0" encoding="UTF-8"?>
<svg width="100%" height="100%" viewBox="0 0 32 32" version="1.1" xmlns="http://www.w3.org/2000/svg" xmlns:xlink="http://www.w3.org/1999/xlink">
    <title>Facebook</title>
    <g id="icon-social-facebook" stroke="none" stroke-width="1" fill="none" fill-rule="evenodd">
        <path d="M17.7582,29.9238 L13.8206,29.9238 L13.8206,20.2828 L10.52866,20.2828 L10.52866,16.3672 L13.8206,16.3672 C13.8206,16.3672 13.8206,15.2132 13.8206,14.6205 C13.8206,12.5713 13.9795,10.89292 15.0851,9.75557 C16.1722,8.63728 17.5299,8.28968 18.7626,8.28968 C20.2297,8.28968 21.6664,8.45579 21.6664,8.45579 L21.6664,11.9591 C21.6664,11.9591 20.0518,11.9812 19.272,11.9812 C18.4923,11.9812 17.7582,12.5388 17.7582,13.6251 C17.7582,14.1804 17.7582,16.3672 17.7582,16.3672 L21.5337,16.3672 L21.0425,20.2828 L17.7582,20.2828 L17.7582,29.9238 Z M15.9248,1 C24.1676,1 30.8496,7.68204 30.8496,15.9248 C30.8496,24.1676 24.1676,30.8496 15.9248,30.8496 C7.68208,30.8496 1,24.1676 1,15.9248 C1,7.68204 7.68208,1 15.9248,1 Z M15.9248,28.4552 C22.8452,28.4552 28.4552,22.8451 28.4552,15.9248 C28.4552,9.00446 22.8452,3.39442 15.9248,3.39442 C9.00448,3.39442 3.39442,9.00446 3.39442,15.9248 C3.39442,22.8451 9.00448,28.4552 15.9248,28.4552 Z" id="facebook-light" fill="currentColor" fill-rule="nonzero"></path>
    </g>
</svg>
