<?xml version="1.0" encoding="UTF-8"?>
<svg width="100%" height="100%" viewBox="0 0 32 32" version="1.1" xmlns="http://www.w3.org/2000/svg" xmlns:xlink="http://www.w3.org/1999/xlink">
    <title>LinkedIn</title>
    <g id="icon-social-linkedin" stroke="none" stroke-width="1" fill="none" fill-rule="evenodd">
        <path d="M30,9.79046194 L30,22.2299556 C30,29.4359654 29.4359654,30 22.2299556,30 L9.77005503,30 C2.56397291,30 2,29.4359654 2,22.2299556 L2,9.77005503 C2,2.56393569 2.56397291,2 9.77005503,2 L22.2095381,2 C29.4344766,2 30,2.56541809 30,9.79046194 Z M28.0511882,23.5297661 L28.0511882,8.47022328 C28.0511882,4.27696 27.7230187,3.94879056 23.5296597,3.94879056 L8.47022328,3.94879056 C4.27694937,3.94879056 3.94877992,4.27696 3.94877992,8.47022328 L3.94877992,23.5297661 C3.94877992,27.7230187 4.27694937,28.0511882 8.47022328,28.0511882 L23.5296597,28.0511882 C27.7230187,28.0511882 28.0511882,27.7230187 28.0511882,23.5297661 Z M24.3999575,23.6999123 L20.8624057,23.6999123 L20.8624057,18.1608033 C20.8624057,16.8396182 20.8383725,15.1403896 19.0228064,15.1403896 C17.1807613,15.1403896 16.8975743,16.5791882 16.8975743,18.0647771 L16.8975743,23.6999123 L13.3600225,23.6999123 L13.3600225,12.3095825 L16.7559276,12.3095825 L16.7559276,13.8659947 L16.8039939,13.8659947 C17.2767876,12.9708131 18.4311231,12.0263848 20.1532151,12.0263848 C23.7375571,12.0263848 24.3999575,14.3855786 24.3999575,17.4527825 L24.3999575,23.6999123 Z M11.1200055,23.6999123 L7.57997592,23.6999123 L7.57997592,12.3095825 L11.1200055,12.3095825 L11.1200055,23.6999123 Z M9.35059152,10.6803371 C8.20930411,10.6803371 7.28645249,9.75508217 7.28645249,8.61619807 C7.28645249,7.47733524 8.21052704,6.55327133 9.35059152,6.55327133 C10.4882633,6.55327133 11.4135289,7.47852626 11.4135289,8.61619807 C11.4135289,9.75508217 10.4882633,10.6803371 9.35059152,10.6803371 Z" id="linkedin-light" fill="currentColor" fill-rule="nonzero"></path>
    </g>
</svg>
