<?xml version="1.0" encoding="UTF-8"?>
<svg width="100%" height="100%" viewBox="0 0 32 32" version="1.1" xmlns="http://www.w3.org/2000/svg" xmlns:xlink="http://www.w3.org/1999/xlink">
    <title>icon-social-linkedin</title>
    <g id="icon-social-linkedin" stroke="none" stroke-width="1" fill="none" fill-rule="evenodd">
        <path d="M29.4972,10.28454 L29.4972,21.72 C29.4972,28.9327 28.9327,29.4972 21.72,29.4972 L10.27722,29.4972 C3.064495,29.4972 2.5,28.9327 2.5,21.72 L2.5,10.27722 C2.5,3.064453 3.064495,2.5 10.27722,2.5 L21.7127,2.5 C28.9322,2.5 29.4972,3.064985 29.4972,10.28454 Z M27.1028,23.2907 L27.1028,8.70648 C27.1028,5.17109 26.8261,4.8944 23.2907,4.8944 L8.70648,4.8944 C5.17107,4.8944 4.89438,5.17109 4.89438,8.70648 L4.89438,23.2907 C4.89438,26.8261 5.17107,27.1028 8.70648,27.1028 L23.2907,27.1028 C26.8261,27.1028 27.1028,26.8261 27.1028,23.2907 Z M24.0978,23.4228 L20.6868,23.4228 L20.6868,18.082 C20.6868,16.8081 20.6637,15.1698 18.9131,15.1698 C17.1371,15.1698 16.864,16.5571 16.864,17.9894 L16.864,23.4228 L13.4531,23.4228 L13.4531,12.44037 L16.7275,12.44037 L16.7275,13.941 L16.7738,13.941 C17.2297,13.0779 18.3427,12.16731 20.0031,12.16731 C23.4591,12.16731 24.0978,14.442 24.0978,17.3994 L24.0978,23.4228 Z M11.29339,23.4228 L7.88014,23.4228 L7.88014,12.44037 L11.29339,12.44037 L11.29339,23.4228 Z M9.58734,10.86947 C8.48692,10.86947 7.59712,9.97735 7.59712,8.87926 C7.59712,7.78118 8.48811,6.89021 9.58734,6.89021 C10.68427,6.89021 11.57641,7.78233 11.57641,8.87926 C11.57641,9.97735 10.68427,10.86947 9.58734,10.86947 Z" id="linkedin-light" fill="currentColor" fill-rule="nonzero"></path>
    </g>
</svg>
