<?xml version="1.0" encoding="UTF-8"?>
<svg width="100%" height="100%" viewBox="0 0 32 32" version="1.1" xmlns="http://www.w3.org/2000/svg" xmlns:xlink="http://www.w3.org/1999/xlink">
    <title>GitHub</title>
    <g id="icon-social-github" stroke="none" stroke-width="1" fill="none" fill-rule="evenodd">
        <path d="M25.004291,15.491154 C25.004291,22.2993002 18.62341,22.2276806 18.62341,22.2276806 C18.62341,22.2276806 19.4369711,23.1388118 19.4369711,24.4242853 C19.4369711,25.1731742 19.4591415,27.2130536 19.4369711,28.0873023 C19.416844,28.8818601 20.3665946,29.3268003 20.3665946,29.3268003 C20.3665946,29.3268003 18.1533366,30.0123453 16.0000511,30.0123453 C13.8467655,30.0123453 11.6335076,29.3268003 11.6335076,29.3268003 C11.6335076,29.3268003 12.583156,28.8818601 12.5630289,28.0873023 C12.5409607,27.2130536 12.5630289,25.1731742 12.5630289,24.4242853 C12.5630289,23.1388118 13.37659,22.2276806 13.37659,22.2276806 C13.37659,22.2276806 6.99579069,22.2993002 6.99579069,15.491154 C6.99579069,12.8643214 8.36868902,11.4973181 8.36868902,11.4973181 C8.36868902,11.4973181 7.64752839,8.69281591 8.61829482,7.50335961 C9.70642124,7.38587702 11.6553715,8.54343658 12.4874249,9.08427129 C12.4874249,9.08427129 13.8063072,8.54343658 16.0000511,8.54343658 C18.193795,8.54343658 19.5125751,9.08427129 19.5125751,9.08427129 C20.3447307,8.54343658 22.2935788,7.38587702 23.3817665,7.50335961 C24.3524614,8.69281591 23.6313621,11.4973181 23.6313621,11.4973181 C23.6313621,11.4973181 25.004291,12.8643214 25.004291,15.491154 Z M13.2482674,26.0400667 C13.2482674,26.0400667 11.5390025,26.2989596 10.9277028,26.2989596 C7.65566094,26.2989596 7.67237557,23.9331653 6.75387811,22.881145 C6.31830674,22.3821581 5.65836498,22.194374 5.65836498,21.9252644 C5.65836498,21.6562569 5.88817069,21.4207605 6.35906142,21.4207605 C7.07388765,21.4207605 7.84050266,21.9272055 8.21468149,22.5307099 C8.59394827,23.142592 9.62898837,24.4653567 10.9898616,24.4653567 C11.8644065,24.4653567 13.0928704,23.9473666 13.0928704,23.9473666 L13.2482674,26.0400667 Z M16.0000511,1 C24.2843156,1 31,7.71571509 31,16.0000511 C31,24.2843156 24.2843156,31 16.0000511,31 C7.71574574,31 1,24.2843156 1,16.0000511 C1,7.71571509 7.71574574,1 16.0000511,1 Z M16.0000511,29.1276755 C23.2502767,29.1276755 29.1276755,23.2501745 29.1276755,16.0000511 C29.1276755,8.74977438 23.2502767,2.87231427 16.0000511,2.87231427 C8.74980503,2.87231427 2.87231427,8.74977438 2.87231427,16.0000511 C2.87231427,23.2501745 8.74980503,29.1276755 16.0000511,29.1276755 Z" id="github-light" fill="currentColor" fill-rule="nonzero"></path>
    </g>
</svg>
