<?xml version="1.0" encoding="UTF-8"?>
<svg width="100%" height="100%" viewBox="0 0 32 32" version="1.1" xmlns="http://www.w3.org/2000/svg" xmlns:xlink="http://www.w3.org/1999/xlink">
    <title>App Store</title>
    <g id="icon-social-appstore" stroke="none" stroke-width="1" fill="none" fill-rule="evenodd">
        <path d="M1,16.0000511 C1,7.71571509 7.71574574,1 16.0000511,1 C24.2843156,1 31,7.71571509 31,16.0000511 C31,24.2843156 24.2843156,31 16.0000511,31 C7.71574574,31 1,24.2843156 1,16.0000511 Z M2.87231427,16.0000511 C2.87231427,23.2501745 8.74980503,29.1276755 16.0000511,29.1276755 C23.2502767,29.1276755 29.1276755,23.2501745 29.1276755,16.0000511 C29.1276755,8.74977438 23.2502767,2.87231427 16.0000511,2.87231427 C8.74980503,2.87231427 2.87231427,8.74977438 2.87231427,16.0000511 Z M15.0548981,11.6350401 C14.2410305,10.2167691 13.6644984,9.21188891 13.6107583,9.11829312 C13.3111005,8.59603249 13.4916308,7.92987893 14.0138097,7.63027228 C14.5359886,7.33064519 15.2021217,7.51098132 15.5017794,8.03322152 C15.5401945,8.10004938 15.8452671,8.63195464 16.3117646,9.4447903 C15.9676639,10.0444021 15.5352904,10.7979601 15.0548981,11.6350401 Z M23.2393448,21.5181262 C23.5390025,22.0403051 23.3585744,22.7065404 22.8363955,23.006096 C22.3142166,23.3057537 21.6479813,23.1254278 21.3483236,22.6031468 C21.2421714,22.4181211 19.103598,18.6911472 17.1011119,15.2012022 C16.6189828,13.9478094 16.7578286,12.7833024 17.6183868,11.7219848 C19.8649514,15.6371516 23.1080593,21.2891685 23.2393448,21.5181262 Z M13.3459397,17.9074191 C12.4327652,17.9074191 11.5754764,17.9074191 10.8325029,17.9074191 C13.0804059,13.9898003 16.3660156,8.26366067 16.4982206,8.03322152 C16.7979805,7.51098132 17.4640114,7.33064519 17.9861903,7.63027228 C18.5084714,7.92987893 18.6888995,8.59603249 18.3892417,9.11829312 C18.2688882,9.32818635 15.5319189,14.0978936 13.3459397,17.9074191 Z M9.58144976,20.0876769 C10.418254,19.8751682 11.1457081,20.0464011 11.727604,20.7279616 C11.112238,21.8005176 10.6968856,22.5243755 10.6516764,22.6031468 C10.3519982,23.1254278 9.68579359,23.3057537 9.16357382,23.006096 C8.6414358,22.7065404 8.46100771,22.0403051 8.76068589,21.5181262 C8.79927461,21.4507978 9.10909803,20.9108417 9.58144976,20.0876769 Z M17.1030531,17.3776798 C17.8767688,17.4858753 18.8118072,18.307712 18.3541982,19.5578354 C13.962828,19.5578354 8.4683127,19.5578354 8.22646142,19.5578354 C7.62433634,19.5578354 7.13639382,19.0697805 7.13639382,18.4677065 C7.13639382,17.8657347 7.62433634,17.3776798 8.22646142,17.3776798 C8.44579495,17.3776798 12.9845727,17.3776798 17.1030531,17.3776798 Z M23.7735794,17.3776798 C24.3755513,17.3776798 24.8636062,17.8657347 24.8636062,18.4677065 C24.8636062,19.0697805 24.3755513,19.5578354 23.7735794,19.5578354 C23.6654861,19.5578354 22.505168,19.5578354 20.8677269,19.5578354 C20.5051339,18.9258263 20.0792991,18.1837826 19.6167861,17.3776798 C21.8924685,17.3776798 23.6396376,17.3776798 23.7735794,17.3776798 Z" id="appstore-light" fill="currentColor" fill-rule="nonzero"></path>
    </g>
</svg>
