<?xml version="1.0" encoding="UTF-8"?>
<svg width="100%" height="100%" viewBox="0 0 32 32" version="1.1" xmlns="http://www.w3.org/2000/svg" xmlns:xlink="http://www.w3.org/1999/xlink">
    <title>Messages</title>
    <g id="icon-social-messages" stroke="none" stroke-width="1" fill="none" fill-rule="evenodd">
        <path d="M16,31 C18.053851,31 19.985564,30.6086752 21.795139,29.8260257 C23.6046459,29.0433762 25.1998584,27.9616264 26.5807765,26.5807765 C27.9616264,25.1998584 29.0433762,23.6046459 29.8260257,21.795139 C30.6086752,19.985564 31,18.053851 31,16 C31,13.946149 30.6086752,12.0144394 29.8260257,10.2048712 C29.0433762,8.39530301 27.9616264,6.80009052 26.5807765,5.41923375 C25.1998584,4.03837698 23.6021276,2.95662383 21.7875841,2.1739743 C19.9730405,1.39132477 18.0388432,1 15.9849922,1 C13.9312093,1 11.9995168,1.39132477 10.1899145,2.1739743 C8.3803463,2.95662383 6.7876283,4.03837698 5.4117605,5.41923375 C4.0358859,6.80009052 2.95662383,8.39530301 2.1739743,10.2048712 C1.39132477,12.0144394 1,13.946149 1,16 C1,18.053851 1.39132477,19.985564 2.1739743,21.795139 C2.95662383,23.6046459 4.03837698,25.1998584 5.41923375,26.5807765 C6.80009052,27.9616264 8.39530301,29.0433762 10.2048712,29.8260257 C12.0144394,30.6086752 13.946149,31 16,31 Z M16,29.0558316 C14.1953935,29.0558316 12.5029675,28.7193311 10.922722,28.0463301 C9.34246277,27.3733291 7.95412935,26.4386281 6.75772168,25.2422273 C5.56131401,24.0458264 4.62661989,22.6574896 3.9536393,21.0772168 C3.28065871,19.4970121 2.94416841,17.8046065 2.94416841,16 C2.94416841,14.1953935 3.28065871,12.5029675 3.9536393,10.922722 C4.62661989,9.34246277 5.56131401,7.95163486 6.75772168,6.75023822 C7.95412935,5.54884838 9.33996828,4.61166317 10.9152385,3.93868258 C12.4905359,3.265702 14.1804538,2.9292117 15.9849922,2.9292117 C17.7996039,2.9292117 19.4945278,3.265702 21.069764,3.93868258 C22.6450682,4.61166317 24.033405,5.54884838 25.2347744,6.75023822 C26.4361439,7.95163486 27.3758133,9.34246277 28.0537829,10.922722 C28.7317525,12.5029675 29.0707373,14.1953935 29.0707373,16 C29.0707373,17.8046065 28.7317525,19.4970121 28.0537829,21.0772168 C27.3758133,22.6574896 26.4411124,24.0458264 25.2496801,25.2422273 C24.0583159,26.4386281 22.6724973,27.3733291 21.0922246,28.0463301 C19.5119518,28.7193311 17.8145436,29.0558316 16,29.0558316 Z M16,22.0119858 C17.5552939,22.0119858 18.9660573,21.7053987 20.2322902,21.0922246 C21.498455,20.4790504 22.5029539,19.6565163 23.2457869,18.6246223 C23.9885519,17.5927282 24.3599344,16.4486673 24.3599344,15.1924396 C24.3599344,13.9362119 23.9885519,12.792151 23.2457869,11.760257 C22.5029539,10.7283221 21.498455,9.90577441 20.2322902,9.29261387 C18.9660573,8.67945332 17.5552939,8.37287305 16,8.37287305 C14.4347009,8.37287305 13.0214533,8.67945332 11.760257,9.29261387 C10.4990063,9.90577441 9.49699505,10.7283221 8.75422327,11.760257 C8.0114583,12.792151 7.64007582,13.9362119 7.64007582,15.1924396 C7.64007582,16.3788353 7.9790572,17.4705562 8.65701996,18.4676023 C9.33498271,19.4645803 10.2372859,20.2721407 11.3639297,20.8902834 C11.5233999,20.9700525 11.5533133,21.1046459 11.4536699,21.2940636 C11.3240111,21.5433081 11.1644762,21.7875841 10.9750653,22.0268915 C10.7856341,22.2661989 10.6111561,22.4755588 10.4516315,22.6549713 C10.252229,22.8743364 10.1799468,23.0812121 10.2347847,23.2755983 C10.2896225,23.4700525 10.4765627,23.5672797 10.7956052,23.5672797 C11.1944305,23.5672797 11.742799,23.4326863 12.4407108,23.1634995 C13.1385546,22.8943127 13.8563747,22.5403542 14.5941711,22.101624 C14.72383,22.0119177 14.8484523,21.9720672 14.9680379,21.9820724 C15.1375813,21.9920095 15.3070907,21.9994623 15.4765661,22.0044309 C15.6460415,22.0094675 15.8205195,22.0119858 16,22.0119858 Z" id="messages-light" fill="currentColor" fill-rule="nonzero"></path>
    </g>
</svg>
