<?xml version="1.0" encoding="UTF-8"?>
<svg width="100%" height="100%" viewBox="0 0 32 32" version="1.1" xmlns="http://www.w3.org/2000/svg" xmlns:xlink="http://www.w3.org/1999/xlink">
    <title>GitHub</title>
    <g id="icon-social-github" stroke="none" stroke-width="1" fill="none" fill-rule="evenodd">
        <path d="M24.5646,15.4151 C24.5646,21.9476 18.4421,21.8789 18.4421,21.8789 C18.4421,21.8789 19.2227,22.7532 19.2227,23.9866 C19.2227,24.7051 19.2439,26.6625 19.2227,27.5013 C19.2033,28.2637 20.1146,28.6906 20.1146,28.6906 C20.1146,28.6906 17.9909,29.6112 15.9248,29.6112 C13.8587,29.6112 11.735,28.6906 11.735,28.6906 C11.735,28.6906 12.6463,28.2637 12.627,27.5013 C12.6057,26.6625 12.627,24.7051 12.627,23.9866 C12.627,22.7532 13.4076,21.8789 13.4076,21.8789 C13.4076,21.8789 7.28508,21.9476 7.28508,15.4151 C7.28508,12.8945 8.6024,11.5828 8.6024,11.5828 C8.6024,11.5828 7.91043,8.89191 8.8419,7.7506 C9.88598,7.63787 11.756,8.74857 12.5544,9.26752 C12.5544,9.26752 13.8199,8.74857 15.9248,8.74857 C18.0298,8.74857 19.2952,9.26752 19.2952,9.26752 C20.0936,8.74857 21.9637,7.63787 23.0077,7.7506 C23.9392,8.89191 23.2472,11.5828 23.2472,11.5828 C23.2472,11.5828 24.5646,12.8945 24.5646,15.4151 Z M13.2768,25.5815 C13.2768,25.5815 11.654,25.8274 11.0736,25.8274 C7.96703,25.8274 7.98289,23.5812 7.11085,22.5823 C6.69731,22.1086 6.07075,21.9303 6.07075,21.6749 C6.07075,21.4194 6.28893,21.1958 6.736,21.1958 C7.41468,21.1958 8.14252,21.6766 8.49779,22.2497 C8.85787,22.8305 9.84057,24.0864 11.1326,24.0864 C11.9629,24.0864 13.1293,23.5946 13.1293,23.5946 L13.2768,25.5815 Z M15.9248,1 C24.1676,1 30.8496,7.68204 30.8496,15.9248 C30.8496,24.1676 24.1676,30.8496 15.9248,30.8496 C7.68208,30.8496 1,24.1676 1,15.9248 C1,7.68204 7.68208,1 15.9248,1 Z M15.9248,28.4552 C22.8452,28.4552 28.4552,22.8451 28.4552,15.9248 C28.4552,9.00446 22.8452,3.39442 15.9248,3.39442 C9.00448,3.39442 3.39442,9.00446 3.39442,15.9248 C3.39442,22.8451 9.00448,28.4552 15.9248,28.4552 Z" id="github-light" fill="currentColor" fill-rule="nonzero"></path>
    </g>
</svg>
