<?xml version="1.0" encoding="UTF-8"?>
<svg width="100%" height="100%" viewBox="0 0 32 32" version="1.1" xmlns="http://www.w3.org/2000/svg" xmlns:xlink="http://www.w3.org/1999/xlink">
    <title>Link</title>
    <g id="icon-link" stroke="none" stroke-width="1" fill="none" fill-rule="evenodd">
        <path d="M16.1591864,10.7670251 L14.4658679,12.4817571 C15.306139,12.5494473 16.0127386,12.7060711 16.5856666,12.9516286 C17.1585366,13.1971861 17.6529245,13.5274286 18.0688303,13.9423561 C18.8072399,14.6875261 19.2995129,15.5067737 19.5456495,16.400099 C19.791786,17.2934243 19.7939298,18.1846398 19.552081,19.0737453 C19.3101742,19.9628508 18.820016,20.7757398 18.0816065,21.5124124 L13.9184053,25.6530741 C13.1799958,26.3897467 12.36519,26.8808617 11.4739881,27.1264192 C10.5828093,27.3719768 9.68950115,27.3740867 8.79406367,27.1327489 C7.89862618,26.8914112 7.08169975,26.4024061 6.34328438,25.6657335 C5.60486323,24.9206213 5.11258438,24.1014026 4.86644786,23.2080773 C4.62031134,22.3146942 4.62031134,21.4234787 4.86644786,20.534431 C5.11258438,19.6453255 5.60486323,18.8324365 6.34328438,18.0957639 L8.83862376,15.6062858 C8.66038917,15.2082953 8.54793004,14.7827894 8.50124638,14.3297682 C8.45456271,13.8767469 8.46517185,13.4427726 8.53307378,13.0278451 L4.79006036,16.7493595 C3.78004018,17.7654636 3.10315692,18.8874383 2.75941058,20.1152838 C2.41566481,21.3430714 2.41354299,22.5729689 2.7530451,23.8049763 C3.09254779,25.0370415 3.77579711,26.1653459 4.80279306,27.1898896 C5.83827574,28.2229885 6.97348485,28.908879 8.2084204,29.2475611 C9.44336173,29.5862431 10.6761882,29.5841333 11.9068998,29.2412314 C13.1375824,28.8982717 14.2579439,28.2229596 15.2679844,27.2152951 L19.6220456,22.8587301 C20.6405456,21.842626 21.3216798,20.7206802 21.6654481,19.4928926 C22.0092165,18.2651049 22.0113314,17.0351785 21.6717927,15.8031133 C21.3323121,14.5711059 20.6448333,13.4428015 19.6093564,12.4182 C19.2104275,12.0117699 18.7393611,11.670949 18.1961573,11.3957373 C17.6529535,11.1205487 16.9739631,10.910978 16.1591864,10.7670251 Z M15.8408254,21.232952 L17.5341439,19.518298 C16.6938728,19.4505501 15.9872732,19.2938973 15.4143452,19.0483398 C14.8414752,18.8027823 14.3470873,18.4725398 13.9311815,18.0576123 C13.1842545,17.3125001 12.6877227,16.4932525 12.4415862,15.5998694 C12.1954497,14.7065441 12.1954497,13.8153286 12.4415862,12.9262231 C12.6877227,12.0371754 13.1799958,11.2243008 13.9184053,10.4875994 L18.0688303,6.34694634 C18.8157573,5.61026221 19.6348218,5.11914139 20.5260237,4.87358387 C21.4172257,4.62802057 22.3083987,4.625902 23.1995427,4.86722816 C24.0907446,5.10855432 24.9098091,5.60179372 25.6567361,6.34694634 C26.3951457,7.08362469 26.8874187,7.89862941 27.1335552,8.7919605 C27.3796918,9.6852916 27.3796918,10.5765128 27.1335552,11.4656241 C26.8874187,12.3547296 26.3951457,13.1676187 25.6567361,13.9042912 L23.161388,16.3937693 C23.3396168,16.8001994 23.4520818,17.2278152 23.4987828,17.6766166 C23.5454259,18.1253603 23.5348226,18.5571958 23.4669728,18.9721233 L27.2099514,15.2506089 C28.2199919,14.2345048 28.8968673,13.112559 29.2405778,11.8847714 C29.5843461,10.6569549 29.586461,9.42702844 29.2469224,8.19499213 C28.9074417,6.96296161 28.2241927,5.83465716 27.1971753,4.81007881 C26.1616984,3.77703022 25.0265038,3.0911539 23.7915914,2.75244984 C22.5566211,2.41374636 21.3237946,2.4158632 20.093112,2.75880035 C18.8624294,3.10173808 17.7378381,3.78126331 16.7193382,4.79737606 L12.3779662,9.141247 C11.359443,10.1573626 10.678306,11.2793056 10.334555,12.5070759 C9.9908098,13.7349213 9.98868914,14.9648477 10.328193,16.1968551 C10.6676968,17.4289203 11.3551843,18.5572247 12.3906554,19.5817684 C12.7895843,19.9882563 13.2606507,20.3290772 13.8038545,20.6042311 C14.3470583,20.8794428 15.0260487,21.0890164 15.8408254,21.232952 Z" id="link-regular" fill="currentColor" fill-rule="nonzero"></path>
    </g>
</svg>
