<?xml version="1.0" encoding="UTF-8"?>
<svg width="100%" height="100%" viewBox="0 0 32 32" version="1.1" xmlns="http://www.w3.org/2000/svg" xmlns:xlink="http://www.w3.org/1999/xlink">
    <title>Discord</title>
    <g id="icon-social-discord" stroke="none" stroke-width="1" fill="none" fill-rule="evenodd">
        <path d="M26.2474936,6.1882439 C26.2474936,6.1882439 31,11.3682277 31,20.8998173 L31,23.6176783 L30.2294609,24.1197649 C27.8429289,25.6749185 24.1743259,27.7778114 22.5296264,27.7778114 L21.6372234,27.7778114 L19.7349985,25.0123531 C18.6489653,25.2412646 17.3703205,25.4183191 16,25.4183191 C14.6295869,25.4183191 13.3509421,25.2412646 12.2649089,25.0123531 L10.3627766,27.7778114 L9.47036436,27.7778114 C7.82566488,27.7778114 4.15699699,25.6749185 1.77051406,24.1197649 L1,23.6176783 L1,20.8998173 C1,11.2937944 5.7524879,6.1882439 5.7524879,6.1882439 C5.7524879,6.1882439 9.29877334,4.33943815 13.1622197,4 L13.9604467,5.5129735 C14.464941,5.44837453 15.181308,5.37715453 16,5.37715453 C16.8185994,5.37715453 17.535059,5.44837453 18.0395533,5.5129735 L18.8376877,4 C22.7377025,4.34928635 26.2474936,6.1882439 26.2474936,6.1882439 Z M29.3029805,22.6980504 L29.3029805,20.8998173 C29.3029805,12.3236925 25.1922968,7.56280559 25.1922968,7.56280559 C25.1922968,7.56280559 22.3806302,6.20172671 19.7837996,5.84357097 L18.9781645,7.37074958 C18.9781645,7.37074958 17.6975751,7.07416473 16,7.07416473 C14.3023323,7.07416473 13.0218355,7.37074958 13.0218355,7.37074958 L12.2161078,5.84357097 C9.61937907,6.20172671 6.80766619,7.56280559 6.80766619,7.56280559 C6.80766619,7.56280559 2.6970102,12.3236925 2.6970102,20.8998173 L2.6970102,22.6980504 C2.6970102,22.6980504 7.88828218,26.0808845 9.47036436,26.0808845 L11.0052474,23.8493678 C10.0513291,23.422196 8.7501636,22.6805487 8.7501636,22.6805487 L9.22589577,22.3124568 C9.22589577,22.3124568 12.2674091,23.7212996 16,23.7212996 C19.7325909,23.7212996 22.774095,22.3124568 22.774095,22.3124568 L23.2497901,22.6805487 C23.2497901,22.6805487 21.9486431,23.422196 20.9947526,23.8493678 L22.5296264,26.0808845 C24.1117271,26.0808845 29.3029805,22.6980504 29.3029805,22.6980504 Z M20.9943822,20.116777 C19.5191439,20.116777 18.3231924,18.7734035 18.3231924,17.1162954 C18.3231924,15.4591873 19.5191439,14.1158139 20.9943822,14.1158139 C22.4697131,14.1158139 23.6656645,15.4591873 23.6656645,17.1162954 C23.6656645,18.7734035 22.4697131,20.116777 20.9943822,20.116777 Z M11.0055252,20.116777 C9.5302499,20.116777 8.33426141,18.7734035 8.33426141,17.1162954 C8.33426141,15.4591873 9.5302499,14.1158139 11.0055252,14.1158139 C12.4808561,14.1158139 13.676715,15.4591873 13.676715,17.1162954 C13.676715,18.7734035 12.4808561,20.116777 11.0055252,20.116777 Z" id="discord-light" fill="currentColor" fill-rule="nonzero"></path>
    </g>
</svg>
