<?xml version="1.0" encoding="UTF-8"?>
<svg width="100%" height="100%" viewBox="0 0 32 32" version="1.1" xmlns="http://www.w3.org/2000/svg" xmlns:xlink="http://www.w3.org/1999/xlink">
    <title>icon-social-messages</title>
    <g id="icon-social-messages" stroke="none" stroke-width="1" fill="none" fill-rule="evenodd">
        <path d="M15.9414,30.8828 C17.9824,30.8828 19.9038,30.4921667 21.7056,29.7109 C23.5073333,28.9297 25.0966667,27.8506 26.4736,26.4736 C27.8506,25.0966667 28.9297,23.5073333 29.7109,21.7056 C30.4921667,19.9038 30.8828,17.9824 30.8828,15.9414 C30.8828,13.9004 30.4921667,11.9790167 29.7109,10.17725 C28.9297,8.37549 27.8506,6.78613333 26.4736,5.40918 C25.0966667,4.03222667 23.5048667,2.95312667 21.6982,2.17188 C19.8916,1.39062667 17.9678,1 15.9268,1 C13.8857333,1 11.9643333,1.39062667 10.1626,2.17188 C8.36084,2.95312667 6.77392667,4.03222667 5.40186,5.40918 C4.02978667,6.78613333 2.95312667,8.37549 2.17188,10.17725 C1.39062667,11.9790167 1,13.9004 1,15.9414 C1,17.9824 1.39062667,19.9038 2.17188,21.7056 C2.95312667,23.5073333 4.03222667,25.0966667 5.40918,26.4736 C6.78613333,27.8506 8.37549,28.9297 10.17725,29.7109 C11.9790167,30.4921667 13.9004,30.8828 15.9414,30.8828 Z M15.9414,28.3926 C14.2128667,28.3926 12.5966667,28.0703333 11.0928,27.4258 C9.58887333,26.7812667 8.26806333,25.8901333 7.13037,24.7524 C5.99267667,23.6147333 5.10400667,22.2939333 4.46436,20.79 C3.82470667,19.2861333 3.50488,17.6699333 3.50488,15.9414 C3.50488,14.2128667 3.82470667,12.5966667 4.46436,11.0928 C5.10400667,9.58887333 5.99023667,8.26562333 7.12305,7.12305 C8.25586333,5.98047 9.57421333,5.08935667 11.0781,4.44971 C12.5820333,3.81005667 14.1982667,3.49023 15.9268,3.49023 C17.6552667,3.49023 19.2714667,3.81005667 20.7754,4.44971 C22.2792667,5.08935667 23.6025,5.98047 24.7451,7.12305 C25.8877,8.26562333 26.7812667,9.58887333 27.4258,11.0928 C28.0703333,12.5966667 28.3926,14.2128667 28.3926,15.9414 C28.3926,17.6699333 28.0727667,19.2861333 27.4331,20.79 C26.7934333,22.2939333 25.9047667,23.6147333 24.7671,24.7524 C23.6293667,25.8901333 22.3061333,26.7812667 20.7974,27.4258 C19.2886,28.0703333 17.6699333,28.3926 15.9414,28.3926 Z M15.9268,21.7422 C17.4404667,21.7422 18.8100667,21.4443333 20.0356,20.8486 C21.2612,20.2529333 22.2353333,19.4546 22.958,18.4536 C23.6806667,17.4526 24.042,16.3417667 24.042,15.1211 C24.042,13.9003667 23.6806667,12.7895333 22.958,11.7886 C22.2353333,10.7876067 21.2612,9.98925667 20.0356,9.39355 C18.8100667,8.79785 17.4404667,8.5 15.9268,8.5 C14.4130667,8.5 13.0434333,8.79785 11.8179,9.39355 C10.5922933,9.98925667 9.62060333,10.7876067 8.90283,11.7886 C8.18505667,12.7895333 7.82617,13.9003667 7.82617,15.1211 C7.82617,16.2734333 8.15820333,17.3256667 8.82227,18.2778 C9.48633,19.23 10.3554733,20.0186 11.4297,20.6436 C11.5859667,20.7314667 11.6152667,20.8730667 11.5176,21.0684 C11.4004,21.3125333 11.2490333,21.5444667 11.0635,21.7642 C10.87794,21.9839333 10.7070333,22.1768 10.55078,22.3428 C10.3457,22.5771333 10.2724567,22.7993 10.33105,23.0093 C10.38965,23.2192333 10.5849633,23.3242 10.91699,23.3242 C11.3075967,23.3242 11.8422667,23.1875 12.521,22.9141 C13.1997333,22.6406333 13.9004,22.2793 14.623,21.8301 C14.7695333,21.7421667 14.9062667,21.7031 15.0332,21.7129 C15.1699333,21.7226333 15.3139667,21.7299667 15.4653,21.7349 C15.6167,21.7397667 15.7705333,21.7422 15.9268,21.7422 Z" id="messages-light" fill="currentColor" fill-rule="nonzero"></path>
    </g>
</svg>
