<?xml version="1.0" encoding="UTF-8"?>
<svg width="100%" height="100%" viewBox="0 0 32 32" version="1.1" xmlns="http://www.w3.org/2000/svg" xmlns:xlink="http://www.w3.org/1999/xlink">
    <title>icon-social-twitter</title>
    <g id="icon-social-twitter" stroke="none" stroke-width="1" fill="none" fill-rule="evenodd">
        <path d="M15.9248,1 C24.1676,1 30.8496,7.68206 30.8496,15.9248 C30.8496,24.1675 24.1676,30.8496 15.9248,30.8496 C7.68208,30.8496 1,24.1675 1,15.9248 C1,7.68206 7.68208,1 15.9248,1 Z M15.9248,28.4552 C22.8452,28.4552 28.4552,22.8451 28.4552,15.9248 C28.4552,9.00443 22.8452,3.39442 15.9248,3.39442 C9.00444,3.39442 3.39442,9.00443 3.39442,15.9248 C3.39442,22.8451 9.00444,28.4552 15.9248,28.4552 Z M23.5382,13.1628 C23.5451,13.3172 23.5485,13.4722 23.5485,13.628 C23.5485,18.3809 19.9742,23.8619 13.4358,23.8619 C11.4281,23.8619 8.81225,23.1506 7.98707,22.246 C8.26599,22.2801 8.54909,22.2968 8.83563,22.2968 C10.50116,22.2968 12.0341,21.7218 13.2503,20.7567 C11.6946,20.7282 10.38231,19.6874 9.92948,18.2586 C10.63652,18.3712 11.5346,18.1967 11.5346,18.1967 C11.5346,18.1967 8.75525,17.7142 8.68308,14.625 C9.48698,15.0964 10.29297,15.0748 10.29297,15.0748 C10.29297,15.0748 8.68996,14.0764 8.71263,12.0817 C8.72565,10.90527 9.19294,10.27257 9.19294,10.27257 C12.2299,14.057 16.5195,14.0313 16.5195,14.0313 C16.5195,14.0313 16.4274,13.4938 16.4274,13.2122 C16.4274,11.2265 18.0187,9.61551 19.9818,9.61551 C21.0042,9.61551 21.9277,10.05214 22.5763,10.75161 C23.387,10.58962 24.1477,10.29062 24.8341,9.87834 C24.5242,11.1347 23.2716,11.8682 23.2716,11.8682 C23.2716,11.8682 24.3442,11.7473 25.3137,11.3016 C24.8375,12.0226 24.2343,12.6553 23.5382,13.1628 Z" id="twitter-light" fill="currentColor" fill-rule="nonzero"></path>
    </g>
</svg>
