<?xml version="1.0" encoding="UTF-8"?>
<svg width="100%" height="100%" class="feather" viewBox="0 0 32 32" version="1.1" xmlns="http://www.w3.org/2000/svg" xmlns:xlink="http://www.w3.org/1999/xlink">
    <!-- Generator: Sketch 52.6 (67491) - http://www.bohemiancoding.com/sketch -->
    <title>Icon/sign-out</title>
    <desc>Created with Sketch.</desc>
    <g id="Icon/sign-out" stroke="none" stroke-width="1" fill="currentColor" fill-rule="evenodd">
        <path d="M17.6568542,17.7071068 L1.5,17.7071068 C0.671572875,17.7071068 4.6934861e-16,17.0355339 0,16.2071068 L0,16.2071068 C-4.69425623e-16,15.3785437 0.671436838,14.7067305 1.49999976,14.7062662 L17.5857864,14.6972524 L15.0621186,12.1805201 C14.4763333,11.5963446 14.4750282,10.6479039 15.0592037,10.0621186 C15.0596889,10.0616321 15.0601744,10.061146 15.0606602,10.0606602 L15.0606602,10.0606602 C15.6464466,9.47487373 16.5961941,9.47487373 17.1819805,10.0606602 L21.9497475,14.8284271 C22.7307961,15.6094757 22.7307961,16.8758057 21.9497475,17.6568542 L17.1819805,22.4246212 C16.5961941,23.0104076 15.6464466,23.0104076 15.0606602,22.4246212 L15.0606602,22.4246212 C14.4748737,21.8388348 14.4748737,20.8890873 15.0606602,20.3033009 L17.6568542,17.7071068 Z" id></path>
        <path d="M31,16 C31,24.2842712 24.2842712,31 16,31 C9.82271892,31 4.51757018,27.2659575 2.21857654,21.9318953 C2.10892778,21.7235196 2.046875,21.4861939 2.046875,21.234375 C2.046875,20.4059479 2.71844788,19.734375 3.546875,19.734375 C4.12727241,19.734375 4.63067907,20.0640116 4.88009085,20.5462808 C4.89752105,20.5711282 4.91155106,20.5959055 4.92180643,20.6204656 C6.73144761,24.9542918 11.0100422,28 16,28 C22.627417,28 28,22.627417 28,16 C28,9.372583 22.627417,4 16,4 C11.0100422,4 6.73144761,7.04570818 4.92180643,11.3795344 C4.91155106,11.4040945 4.89752105,11.4288718 4.88009085,11.4537192 C4.63067907,11.9359884 4.12727241,12.265625 3.546875,12.265625 C2.71844788,12.265625 2.046875,11.5940521 2.046875,10.765625 C2.046875,10.5138061 2.10892778,10.2764804 2.21857654,10.0681047 C4.51757018,4.73404247 9.82271892,1 16,1 C24.2842712,1 31,7.71572875 31,16 Z"></path>
    </g>
</svg>