<?xml version="1.0" encoding="UTF-8"?>
<svg width="100%" height="100%" class="feather" viewBox="0 0 80 80" version="1.1" xmlns="http://www.w3.org/2000/svg" xmlns:xlink="http://www.w3.org/1999/xlink">
    <title>Icon/upload</title>
    <g id="Icon/upload" stroke="none" stroke-width="1" fill="currentColor" fill-rule="evenodd">
        <path d="M6,59 L6,70 C6,72.1421954 7.68396847,73.8910789 9.80035966,73.9951047 L10,73.9999667 L70,73.9999667 C72.1421954,73.9999667 73.8910789,72.3160315 73.9951047,70.1996403 L74,70 L74,59 L80,59 L80,70 C80,75.5228475 75.5228475,80 70,80 L10,80 C4.4771525,80 0,75.5228475 0,70 L0,59 L6,59 Z M40.6950221,0.719814799 C40.7031457,0.727667593 40.7111356,0.7356575 40.7189884,0.743781079 L67.3614786,28.3049779 C67.7453287,28.7020642 67.7345987,29.3351383 67.3375124,29.7189884 C67.1510437,29.8992415 66.901839,30 66.6424903,30 L55,30 L55,56 C55,60.418278 51.418278,64 47,64 L33,64 C28.581722,64 25,60.418278 25,56 L25,30 L13.3575097,30 C12.805225,30 12.3575097,29.5522847 12.3575097,29 C12.3575097,28.7406513 12.4582683,28.4914466 12.6385214,28.3049779 L39.2810116,0.743781079 C39.6648617,0.346694763 40.2979358,0.335964695 40.6950221,0.719814799 Z" id="Icon"></path>
    </g>
</svg>
