<svg width="100%" height="100%" class="feather" viewBox="0 0 32 32" version="1.1" xmlns="http://www.w3.org/2000/svg" xmlns:xlink="http://www.w3.org/1999/xlink">
    <title>Icon/user</title>
    <desc>Created with Sketch.</desc>
    <g id="Icon/user" stroke="none" stroke-width="1" fill="currentColor" fill-rule="evenodd">
        <path d="M24.9954751,26.3522325 C27.8865941,23.8378781 29.7142857,20.1323792 29.7142857,16 C29.7142857,8.42580915 23.5741909,2.28571429 16,2.28571429 C8.42580915,2.28571429 2.28571429,8.42580915 2.28571429,16 C2.28571429,20.0999527 4.08483494,23.7796983 6.9366625,26.292823 L6.94372174,26.2889739 L11.3441391,23.8886957 C11.7431652,23.6705391 11.9908174,23.2531478 11.9908174,22.7990261 L11.9908174,21.1884522 C11.648,20.7354435 10.7202783,19.3986783 10.2694957,17.6328348 C9.79867826,17.2471652 9.52375652,16.6756174 9.52375652,16.062887 L9.52375652,14.0900174 C9.52375652,13.607513 9.70128696,13.1394783 10.0173913,12.7716174 L10.0173913,10.1743304 C9.98845217,9.88549565 9.88605217,8.25544348 11.0653217,6.91088696 C12.0909913,5.74052174 13.7510957,5.14782609 16,5.14782609 C18.2489043,5.14782609 19.9090087,5.74052174 20.9346783,6.91144348 C22.1139478,8.256 22.0115478,9.88605217 21.9826087,10.174887 L21.9826087,12.7721739 C22.2992696,13.1400348 22.4762435,13.6080696 22.4762435,14.0905739 L22.4762435,16.0634435 C22.4762435,16.856487 22.0210087,17.5588174 21.3158957,17.8938435 C20.9591652,18.9250783 20.4699826,19.8834087 19.8600348,20.7449043 C19.7409391,20.9124174 19.6257391,21.0649043 19.5166609,21.1995826 L19.5166609,22.8452174 C19.5166609,23.3177043 19.7793391,23.742887 20.2022957,23.9543652 L24.9143652,26.3101217 C24.9414989,26.3237333 24.9685316,26.3377772 24.9954751,26.3522325 Z M16,32 C7.163444,32 0,24.836556 0,16 C0,7.163444 7.163444,0 16,0 C24.836556,0 32,7.163444 32,16 C32,24.836556 24.836556,32 16,32 Z"></path>
    </g>
</svg>