<?xml version="1.0" encoding="UTF-8"?>
<svg width="32px" height="32px" viewBox="0 0 32 32" version="1.1" xmlns="http://www.w3.org/2000/svg" xmlns:xlink="http://www.w3.org/1999/xlink">
    <g id="Icon/Error" stroke="none" stroke-width="1" fill="none" fill-rule="evenodd">
        <path d="M15,15 L15,1.5 C15,1.22385763 15.2238576,1 15.5,1 L16.5,1 C16.7761424,1 17,1.22385763 17,1.5 L17,15 L30.5,15 C30.7761424,15 31,15.2238576 31,15.5 L31,16.5 C31,16.7761424 30.7761424,17 30.5,17 L17,17 L17,30.5 C17,30.7761424 16.7761424,31 16.5,31 L15.5,31 C15.2238576,31 15,30.7761424 15,30.5 L15,17 L1.5,17 C1.22385763,17 1,16.7761424 1,16.5 L1,15.5 C1,15.2238576 1.22385763,15 1.5,15 L15,15 Z" id="Plus" fill="#FFFFFF" fill-rule="nonzero" transform="translate(16.000000, 16.000000) rotate(45.000000) translate(-16.000000, -16.000000) "></path>
    </g>
</svg>